# xmcd CD database file
#
# Track frame offsets:
#	150
#	9595
#	21450
#	34062
#	47135
#	62445
#	76435
#	88965
#	104205
#	116875
#	134025
#	144630
#	163122
#	180922
#
# Disc length: 2590 seconds
#
# Revision: 0
# Processed by: cddbd v1.5.1PL0 Copyright (c) Steve Scherf et al.
# Submitted via: CDex 1.51
#
DISCID=cb0a1c0e
DTITLE=BLACK LADIES - EVERY BEAT MY HEART
DYEAR=1999
DGENRE=Jazz
TTITLE0=EVERY BEAT OF MY HEART
TTITLE1=DANCING IN THE STREET
TTITLE2=DON'T MAKE ME OVER
TTITLE3=LAUGHING BOY
TTITLE4=CRAZY ABOUT YOU, BABY
TTITLE5=HE'S OUT OF MY LIVE
TTITLE6=I'LL NEVER FALL IN LOVE AGAIN
TTITLE7=I HEARD IT TROUGH THE GRAPEVINE
TTITLE8=STAND BY YOUR MAN
TTITLE9=BLOWIN'IN THE WIND
TTITLE10=GEE WHIZ
TTITLE11=SUNSET and BLUE
TTITLE12=SEND IN THE CLOWNS
TTITLE13=LET IT BE ME
EXTD=YEAR: 1999
EXTT0=
EXTT1=
EXTT2=
EXTT3=
EXTT4=
EXTT5=
EXTT6=
EXTT7=
EXTT8=
EXTT9=
EXTT10=
EXTT11=
EXTT12=
EXTT13=
PLAYORDER=
